<mxfile host="Electron" agent="Mozilla/5.0 (Windows NT 10.0; Win64; x64) AppleWebKit/537.36 (KHTML, like Gecko) draw.io/27.0.9 Chrome/134.0.6998.205 Electron/35.4.0 Safari/537.36" version="27.0.9">
  <diagram name="Page-1" id="hjgdDRXrOjk1iLl1qDJj">
    <mxGraphModel dx="1042" dy="626" grid="1" gridSize="10" guides="1" tooltips="1" connect="1" arrows="1" fold="1" page="1" pageScale="1" pageWidth="1100" pageHeight="850" math="0" shadow="0">
      <root>
        <mxCell id="0" />
        <mxCell id="1" parent="0" />
        <mxCell id="lSAonV-mom5EgJ4q0kRa-1" value="" style="shape=image;verticalLabelPosition=bottom;labelBackgroundColor=default;verticalAlign=top;aspect=fixed;imageAspect=0;image=data:image/png,iVBORw0KGgoAAAANSUhEUgAAAhcAAAGDCAYAAACYxjKAAAAAAXNSR0IArs4c6QAAAARnQU1BAACxjwv8YQUAAAAJcEhZcwAADsMAAA7DAcdvqGQAAEC4SURBVHhe7d1/bBvneQfwL2Wn+WF3pByhUZBslBx3MZYupGwUa+Z2JLV2GDospAys2TqspLQmaTd0kgykQbNhN3YdinatRA8d0i6eRGIYMg+BRA9BgQEbRS7pmiGrTBXdljSORK5p4zaZSrZu6iAub39E7/X4ksdfeknekd8P8CDx+x4p8u69l8+9d/eeq1Kp6CAiIiJSwOVyYUQuJCIiItoPJhdERESkFJMLIiIiUorJBRERESnF5IKIiIiUYnJBRERESjG5ICIiIqWYXBAREZFSTC6IiIhIKSYXREREpBSTCyIiIlKKyQUREREpxeSCiIiIlGJyQUREREoxuSAiIiKlmFwQERGRUkwuiIiISCkmF0RERKQUkwsiIiJSiskFERERKcXkgoiIiJRyVSoVXS5sRT6fR6lUkouJiIjIBjweD/x+v1zcdS6Xq7PkIp1O4/Tp03IxERER2Ugmk0EwGJSLu8rlcnV2WmRra0suIiIiIpvJ5XJyUU90NHIRj8cRj8cBAJVKRa4mIiKiPhoZeXPsQNM0aJomV3dVxyMXRERERFaYXBAREZFSTC6IiIhIKSYXREREpBSTCyIiIlKKyQUREREpxeSCiIiIlGJyQUREREoxuSAiIiKlmFwQERGRUkwuiIiISCkmF0RERKQUkwsiIiJSiskFERERKcXkgoiIiJRickFERERKMbkgIiIipZhcEBERkVJMLoiIiEgpJhdERESkFJMLIiIiUorJBRERESnF5IKIiIiUYnJBRERESjG5ICIiIqWYXBAREZFSTC6IiIhIKSYXREREpBSTCyIiIlKKyQUREREp5apUKrpc2Ew8Hkc8HgcAVCoVuZoUKBQKmJ2dlYvrunbtGp5//nkcOHAAx48fl6vr8ng8WF9fl4uJqMdmZmZQKpXk4roKhQLK5TLuvPNO3HDDDXJ1Xaurq5iYmJCLacCNjLw5dqBpGjRNk6u7yuVyMbmwq3Q6jdOnT8vFSm1vb7PTIeoz8SPQLUtLS1hYWJCLacAxuSBLyWQSxWJRLq5RKBSQSqWAvYbUCp/Ph0gkIhcTUY9ls1nkcjm5uC7R70aj0ZYODNxuN2KxGDwej1xFA47JBe1bNpvF9PQ0wO1BNNDED0Ymk0EwGJSriQz9Ti66Ox5HREREQ4fJBRERESnF5IKIiIiUYnJBRERESjG5ICIiIqWYXBAREZFSTC6IiIhIKSYXREREpBSTCyIiIlKKyQUREREpxeSCiIiIlGJyQUREREoxuSAiIiKlmFwQERGRUkwuiIiISCkmF0RERKQUkwsiIiJSiskFERERKeWqVCq6XNhMPB5HPB4HAFQqFbnaURKJBMrlslzsKIVCAalUCgCgaZpc7Tg+nw+RSEQupiGVz+dx4cIFuXgoiX43Go1iYmJCrh467CusjYy8OXagaVrPfxdcLtdwJxfZbBbT09NyMdmAk9sVqTUzM8Pkgiyxr6iPyUUfmZOLQCAgVzvKc889hxtuuMHRRzOlUglbW1uAw9sVqRUKhZDL5eD1eh3dvlV46aWXcOXKFRw7dgwHDx6Uq4cG+4rmmFz0kTm5cPL3GBTcHlSPSC760UmSPbGvaK7fyQUv6CQiIiKlmFwQERGRUkwuiIiISCkmF0RERKQUkwsiIiJSiskFERERKcXkgoiIiJRickFEtnb16tWq/xKR/Q11cpHP5+Ui6qNLly7JRUR48cUXAQDPPPOMXEVDin2F/Q11cnHs2DG5iPpofHxcLiLCzTffDLB9kAnbgv0NdXJx+PBhuYj6iNuD6hE/JMePH5eraEixr7C/oU4uiIiISD0mF0RERKQUkwsiIiJSiskFERERKcXkgoiIiJRickFERERKMbkgIiIipZhcEBERkVJMLoiIiEgpJhddVCqV5KKGSqUSstksstls26/tNbt/PqJWsB13H9fxcGJy0SWTk5OYnJxEoVCQq6qUSiXE43FMTk7iyJEjmJ6exvT0NI4cOYLR0VHE4/G6O2c8HsfIyAhGRlrfhNls1nhNNpuVqw35fB6jo6PGsul0uqo+nU7jyJEjmJmZqSoncpJsNst23GWir5idnZWraMC1/ss0hGZnZ5smB1aKxSLK5XLD1+fzeUxNTSEej6NYLMrVKJfLiMfjCIVCdROMbsjn8wiFQiiXywCAlZUVRCKRqmW2traAfRyRZLNZxONxuZiobclkEslkUi5uSS6XA/bRjqk50Vc06gcbYV/hXEwuGkilUjh69Oi+kgwrhUIBoVAIxWIRbrcb8/Pz2N7eRqVSQaVSwfb2NqLRKLC3g4ZCIfktlDMnFm63G5lMBrFYTF6sY9lsFqFQCNPT0w1HTohaVSwWMTc3h8nJyY6TDLIf9hXOx+SiBd1IMmZnZ40f8Y2NDSwvL2NiYsKon5iYwOrqalWC0c3OU04sNjY2EAwG5cU6Yu4oxNEikUpMMgYD+4rBweSiDaqSjHw+b+w4CwsL8Pv98iKG1dVVuN1uYO86i26ol1g0+kytYkdBvcYkw5nYVwweJhd74vF4TVgxJxlPP/004vE48vm8vJils2fPGv8/Pz9fVVfP6uoqMpkMdnZ25Kp9U5lYZLNZJBIJPPnkk007ikKhULO+U6mUvBgRrly5ApjOv5vDashcTjLS6TQSiYS8GPWJ2B6tJBXsKxyqUqno7YamaToAHUBNnZNiaWnJ+B77jXA4XPXeojyTydT83UAgoAPQ3W53TV2r0ck2yGQyVZ9rc3NTd7vdxmfZ3NyseU29EH87EAhUlYv3UhHy32QMb4yNjdW0j07DvD9atWOGurBax+wruh9i/WiaVlPX7dB1XR/qkYuZmRmMj4/jjjvuQCAQqIlmAoEA7rrrLqDNK87FKEenIwQqyHeFeDyeqms+OiHeKxwOw+v1ytVVPB5PzfoOBAK45ZZb+rpeyH4eeeQReDwenDx5sqa9NGtnAIzrlsg+RF8RjUaN075W6vUVp06dwtjYGPsKGxvq5MLr9eI73/kOXnjhBWxsbNSElUAggEwmg42NDYyNjcnVTYkda78/5vtx5swZ41QI9oaRVd2L7vf7sbOzg5WVFcvO3+fz1azvjY0NvPzyy9jc3JQXpyG2sLCA3d1dPPvsszXtpdHdTNFoFNvb21hdXZWryCai0WhHfcVTTz2F733ve+wrbGyok4t2mZOK/dxJIX7Q93NRqApipw2HwwCACxcuKD0vHYvFmnYcRKqZk4p+JvDUGo/Hw75iADG5aIGqpEIQQ3ntXASqmkgs/H4/VldXjR36zJkzyj8XOw7qBSYVzse+YnAwuWhAdVIhiOSi2QyeQiKRwOjoKGZnZ9u6tqOR5eVleDweYO/IwTx0rPLvmJk7Dnb+pIJ5AjomFYODfYXzMbloQHVSIQRMF4u2ckvV2bNnUS6Xkc1mjYRAtWAwaNwWu7W1hcXFRXkRZWKxGM+DkxILCws1E9DR4GBf4VxMLvogEokYQ36JRKLhaYi46bkjjS5eU0HTNPh8PmAv6eEkRERE1AkmF30isvFyuYxQKFTzQ14qlbC4uGhM5uXz+VqacGs/5NMji4uLDRMfIiKiephc9EkwGMTKygqwl2DMzc1hZGQEoVDIePy6mMnT7XZjdXXV8pSIeDS6VTSabVTm9/uhaRqw97lU3Z5KRETDg8lFH8ViMWQyGeNWUOw9Btr8+HVxH3gvJ4vRNM24LqTb118QEdHgYXLRZ8FgEOvr69je3kYmk8Ha2hrW1taQyWRQqVQsRyyi0SgymUxLIWYo9Pv9RlmzZGV9fb3m9URERK1gcmETExMTCAaDiEQiiEQiTe9SEcu3EuJKeo/HY5TVS1jMzMs2S0SIiIjMXJU3H3DSFvFkOrz54DO5eqiEQiHkcjkEAgFsmKYMHxl5M29bWlrqyY/zlStXcPjwYbm4K1KpFFKplOV31jTNuG6DyA5E28xkMkbiLvoxn8+H5eVl6RXdceTIEdx9991ycU8Vi8WuPGG5nmZ9hXl7kFr97I9dLheTi/1qllwMsltuuQUvv/yy8e9+NmaiRur9mM3OzrY0z4xqcl/RS08//TQCgQB0ve1uf19uu+02fOtb3zL+XW97kFr97I9dLhdPi1DnfvKTn8hFRI7RjVloW3Hp0iW5qGdeeumlnicWAPD666/LRTTgOHKxT81GLnp1WuTy5cs4fPhwT06NNBvq7EemTNRIvSPlXp8WWVxcxNbWVs1+00vZbBbT09PA3rrotmZ9BUcuuqef/bHL5QIqlYrebmiapgPQAdTUDVsEAgEdgB4IBKrKxfrJZDI1r3F6iO1v9Z01Tat5DYPRz6i3P1q1426FVV/Ry8hkMj3tu63Wcb3twVAb/eyPdV3XeVqEiIiIlGJyQUREREoxuSAiIiKlmFwQERGRUkwuiIiISCkmF0RERKQUkwsiIiJSiskFERERKcXkgoiIiJRickFERERKDf2zRU6cOIE33ngDY2NjclVLtra2UCqVcPLkSTz77LNG+SDPnS+2v9XzArxeLyYmJkyvaF2hUMDU1BTW1tbkKhpS58+fxx//8R9jdHS042fn5HI5wOLZInI77har5xD1kvnZIr3ou63WsegrfD4fPB6P6RWtKxQKeO9734vHHntMriI+W6S/sbS0ZHyP/cbY2FjVe4vyQZw73+p5ASMjIzXrpdOQ/yZjeGN8fLymfXQaS0tLxvtateNuBZ8t8tNyebvsJ+S/yXgzxPrp17NFhnrk4sknn8S9994LAAgEAnJ1S65cuYJisYhHHnkECwsLRvkwjlycPn0aX/3qV3Hs2DEcPHiw6jWtKJVK2NraAhzerkitqakpbG1t7WtE7KWXXgIAvPDCC0aZVTvuFo5csK/oJY5c9DG6mcWL9x2mkYv9Rje3B8O5IY74VR+BdasdWwVHLmrrO41efw8nhlg/qvebVoJPRSUiIiLlmFwQERGRUkwuiIiISCkmF13idrsBoOML0OzM6/UCQMe3kBHZAdtx94l+kOt4+DC56JKLFy9ic3NzIJOLWCyGzc1NrK6uylVEjsF23H0LCwvIZDJcx0OIyUWXTExMwO/3y8UDw+/382iEHI/tuPuCwSDX8RCy1TwX4j1b4fV6EYvFAADJZBLFYhHYu6e3kWw2i1wuZ9wz38t7vqkxq3vwxTZrVTQaxcTEBAqFAlKplFxtEG1ABNmTmB+iH/frqzSM81x0y6B8j27iPBemEO/ZSpjvmxb3j7dyT6/5vmveK22vsNoe5vbWSoi5Rczv1yzC4bC+ublZ85kY/Y9uzXPR6xjGeS66FYPyPboZYv30Y7+x7TwXXq8XgUCgYVidcojH48jn83IxDQi5HdSLekOwPp+vZrmAaVbWCxcuIBQKoVQqVb2OiIjaZ8vkIhaLYWNjo2EsLy/LLzPMzs7KRTQg5HZQL+olnsvLyzXLbWxsoFKpIBqNAgDK5TLOnj0rv5SIiNpky+Riv7a2ttq6foOGm/lK9mw2W1VHRETtG6jkIhAIwOfzATw9Qm0Sp0gKhYJcRUREbRqo5ALSUShPj1CrxLUWvGuEiGj/bJlcFAoFZLNZy2h0dOn3+43bbnh6ZPDIbUGOTiSTSePxzfWu1yAiovbYMrlIpVKYnp62jEZzF2Dvvl6eHhlMcluQw0oqlTLmZzHH1NQU5ubmgL2piufn5+WXEhFRm2yZXKjQyumRK1euyEU0oKySCzFi4fV6sbq6ytMiNiROWV2+fFmuIiKbsmVyoWkaKpWKZbQy21grp0cuXbokF1EftTLCJLcFOaxYzXOhaRqWlpZw8eJFRCIR+WVkA9/+9rcBAM8995xcRUOqlb6C+suWyYUqzU6P8Py6vXRze1jNc6FpGhYWFupOvEX2IJ5eevz4cbmKhlQ3+wpSY6CTC7R4eoSI7Ovw4cMAgPHxcbmKiGxq4JML+fRIIpGQFyEiIiKFBj65gHR6pFwuy9VERESk0FAkF5BOjxAREVH3DE1yYT49QkRERN1jq+RC3B4org5vld/vR6DBY9gFTdMQDodbWpbsw+v11jwivRUej8d4He8GISLqHVslF+L2wFgsJlc1JG4zbPQYdmF9fb3lZckeYrGY0Tba4ff7jdcxmSQi6h1bJRdERETkfK5KpaLLhc2IqZOxd6rBqV599VX89V//NbA38yP1VzabNZ4P4uR21W9utxsLCwtysWOFQiHkcjlomubodiG+RyAQaHsUThXzPubkPm9Qvkc3jYy8OXbQj/3G5XJ1llwkEgmcOXNGLnY0NtD+O3fuHB544AG5mDqwubk5MKeCmFyoMyg/yoPyPbrJkclFqVTC7Oys8UAhp7p27Rq+8pWvAGygtmDuMNq9eJPe3C/Fg9gymQyCwaC8iCMxuVBnUH6UB+V7dJMjk4tBwQZqL9we+2Nef0wu7IfJhTqD8j26qd/JBS/oJCIiIqWYXBAREZFSTC6IiIhIKSYXREREpBSTCyIiIlKKyQUREREpxeSCiIiIlGJyQUS2dvXq1ar/EpH9DXVykc/n5SLqo0uXLslFRHjxxRcBAM8884xcRUOKfYX9DXVycezYMbmI+mh8fFwuIsLNN98MsH2QCduC/Q11cnH48GG5iPqI24PqET8kx48fl6toSLGvsL+hTi6IiIhIPSYXREREpBSTCyIiIlKKyQUREREpZZlcxONxxONxJJNJucqSeE02m5WriGwpmUwa7bZV4jWJREKuIiKiRslFNptFPB7H4uKiXFVXOp1uu5Mm6rdSqWS023Q6LVfXKJVKmJubQzwex9bWllxNRESNkotoNAoAKJfLLXW6qVQKAOD1ehEMBuVqIluKxWLG/1+4cKGqrh7zvjA/P19VR0REb7JMLiKRCNxuN2BKHKyUSiWjYzZ31kR25/F4EA6HASlxsGJOov1+v1xNRESNkguPx4NIJALsHdGVSiV5EYP5ugwx4kHkFOZRukbXGBUKBeRyOYCjFkREDVkmF5A60EZHdeJoLhwOY2JiQq4msrVIJAKv1ws0OTViHsHjCB0RkbWGyYXf74fP5wManBrJ5/PGhW3dGrVIp9MYGRlp+eJSIlkoFMLIyAgKhYJcBewlGGgySidGNaLRKDwej1w99MQ65gMBycmmpqYwOjpq2VdQaxomFzAlDLlcru7KFkmH2+02OmjVRPLCTos6JU5n1GvDaGGULpvNolgsAl1Mop1OrGOr5KyZZDLJfZyUmJ2dtdzXm9na2kK5XO749fSmpsmFefi3XqcryjhMTE42MTGBQCAAWIzS8W6o7kkmk5icnMTc3FzHiQmRWSqVwtGjR/eVZND+NE0uPB6PcaQmd7rpdNo4mhNHfiMjI5zrghzJapSuVCrVTaJHRkbwnve8By+88IJRRq0zJxWiHyFSiUlG/zRNLrB3oSb2hovMG0hc/BYIBKou5PzhD39o/D+RU5hvvzaP0qXTaZTLZaDOKZHvfe97uHbtWlUZNcakgnqNSUbvuSqVii4X1jM5OYlisYj5+XksLy+jVCrhyJEjAICVlRXjiO6b3/wmbr75Ztx8883SO/xUpVLByEh1XvP444/jk5/8JM6dO4dTp05V1YkZFAOBADY2NozydDq9r1kSC4WCMRpTqVTkauqxbDaL6elpAICmaXJ1W8LhcNU8FKK9ZTKZhqc1ZmdnkUql4PP5cPHiRQDAzMwMLly4gHA4jPX1dWPZ559/HjfddBNuueUWvOUtbzG9S3+Y11+z79kN9dZxqVRCMpmE3+9HoVBAPB5vmFBEo9GaO86SySSKxSIefvhhfPrTn66qc5JQKIRcLlfTj/WSuY04uc9r1lc0Gz2PRqNYXFzE+vp6x32F3YnvoWla3XXUTS6XC6hUKnoroWmaDkD3er16pVLRV1ZWdAC62+3Wd3d3jeWeeOIJ/b//+7/1SqWib21t6d/97nf1SqWif/azn9UfffRR/Stf+UrNe1cqFf3v//7v9TvvvFN/6qmnaurE3w4EAlXlbrdbB6Ak5L/J6H38zd/8Tc126TTktiLKM5lMzd81x+bmprHs5uamvr29bfx7bW2tatnz58/r2WxWv3r1qv7d735X/7u/+zu9UqnoX/7yl/UvfOEL+rlz52rev5uRyWRa/p7diHp/e2lpSQegj4yM1GyjdkPepk6LQCDQ9+9hbiNynZNCtCsVEQ6Hq95blPdjH1IZ4ntomlZT1+3QdV1v6bQITMPBxWIR+XzeOCUSiUSqbsu7//778eSTTwIA1tbWcOLECdx1110olUr4l3/5F4TDYXz+85+vOgIEgIMHD1b9txViqNrn8yEQCLQdp06dwtjYGAJ7F/JRf334wx/G+Pg4brvttppt1WqI+So6Jd9+LU6PeL3emruhYrEY/vIv/xI/+MEPcOnSJSwtLWF0dBTnz5/Hyy+/jIWFBfz+7/8+Hn/88arXDROxj1YqlZb2s3r78l133QWPx4OPfOQj8uI0pGZmZhr2Fc14vV7jdD8vIu4SOeNoFCLzjkajRla0ublZtYw5Uzpz5ozucrn0J554Qn/ttdf0r33ta/o999yjA9DHxsb0paUlfWlpSf+rv/or/UMf+pD+tre9Tf+jP/oj/ezZs/rS0pLxnlYjF4OSYTLUhYq2Io6KfD6f7vP5LLN/APq73vUu/eWXX9Y3Njb0Q4cO6XNzc/qlS5f0119/XV9cXNQPHz6sHzlypOa13Qg7jlyI7YG9I+VMJmP0I/WiH5+7V8GRi96F3K5EeL1efWVlRa8o6ivsHOJ71Ou7uh1tjVzANHohrlPw+XwNn6/gcrng8Xhw+vRp3HDDDXjHO96B97///QCAV1991YhXXnkFP/jBD3Dt2jWUSiW88sorePXVV+W3I+oJcf3Q1tZW0wniDhw4AJfLBZfLhR//+Mf4wAc+gKNHj+K6667D5z//ebzlLW/B7u6u/LKhFQwGsbGxgUwm09IRJpEKXq8XKysr2NnZ4bQJPdJWchGLxYyr6dGgwzVzuVzG/3//+9/Hf/3Xfxn/fuihh/DQQw/h4Ycfxm/8xm/gyJEj+OAHP4iHH34YDz30kLEcUS+Zb79GnbuhrOi6juuvv76q7MCBA8DexVVyDDMmGdQLTCr6p+0ebnl52bj6tN2N9ZOf/AQ//vGPjX+73W643W7cdNNNuOmmm6DrOg4dOoRDhw5VJTFEvTY/P2+083autNZ1ve6/H3744ZogJhnUHUwq+q/t5CIWixkdrsrnK/z8z/88PvShD+HWW2+Vq4h6zu/3G+1cxe1on/rUp2qCfkokGSrWNRGTiv5rO7lohZhU6I033qgaqahUKnjttddMS/7U3XffjcXFxX1f7U/US1evXoWu66hUKsZ/zUT7P3DgQE0QEQ0q5cnF/fffj3e9610AgF/5lV/BH/zBHxh1t912G/7iL/4Cv/3bv11zW9l1112Hw4cPs9Mlx4jFYrjvvvtw00034fbbb8dHP/pR3H777VXLfPSjH61p60REg055crG8vIxf+7VfAwD85m/+Jj75yU9W1Z84cQKPPfYYPv/5z1eVEznNF77wBXzsYx/D4cOHcfToUXzuc5/DsWPHqpaJx+Ns60Q0dJQnFzfddBOuu+46YG804sYbb6yqHxkZwaFDh2rKiZzmpptuwvXXXw+Xy4WRkRHceOONNXeB3HjjjWzrRDR0lCcXRERENNyYXBAREZFSTC6IiIhIqY6Si3w+j9HR0ZoZB7sV4vG5hUJB/ihEbZmenq5pX92KyclJ+c/3TC+/pwjh8uXLVZ+FyIn6sQ+pjH7r6BMUCgXjaYe9dPXqVbmIyLaKxWJPn7jY6Dk/vXTlyhW5iIj6pF8z37oqbz49rW35fL5nHWcqlUIqlcKpU6fw1FNPGeUiO8tkMpzZj4C9Wz/j8TgCgQA2NjaMctFWlpaWevYjPDEx0dIzSVQqFArGCN+VK1dw6dIleZG2jY+PY3x8XC6uMT09DUj7o9ge2JtEb5iFQiHkcrmattlL2WzW2E7Dvj362VdcunSpKglvdR9rl8fj6dp3aMTlcnWeXPRSs0bA5IIEtpX+qbeOmVz8FJMLe2Ff0T0ul6uz0yJEREREVphcEBERkVJMLoiIiEgpJhdERESkFJMLIiIiUorJBRERESk1sMlFPB5HNpuVi2lAJJNJJJNJuZiIiGxgYJMLcT93KBRikjFAkskkJicnMTc3h2KxKFcTEZENDGxyIeRyOSYZA4BJBRGRcwx8ciEwyXAmJhVERM4zENN/R6PRmmc4JJPJhj9GgUAAmqYhn89jYmICkUhEXoT6IJFIwOPxAHvbvdk2lKfnzWazyOVyOHnyJJ599lmjnFP6dl+9dfyJT3wCn/nMZwAAmqZVLd+qy5cv47nnnsNHPvIR3HfffXK1Y3D6b7VOnz6N66+/HsePH5erWsK+onsG5tkiKjh9RxsE+XweJ06ckIs74vF4sLu7a/ybHUb31VvHv/u7v4vHH39cWrIz8v7vNEwu1EkkEjhz5oxc3JGxsTF873vfM/5drx1TexyfXJw+fRpf/epXcezYMRw8eLDqNVtbWw2f2ur1enHffffhs5/9LODwHW1QmDs+TdOQSCRQLpflxQxer7dmxOrKlSsoFot45JFHsLCwYJSzw+i+euv46aefxgc+8AEcOnQIt99+u/SK1oh9+cEHH8Sjjz4qVzsGkwt1zN8j0OEjxdlXdI/L5QIqlYpu99A0TQegBwKBmjqrCAQCOoCa8Hq9+srKil6pVPRMJmOUy69n9D7k7bG7u6trmqa73e6a7QhA1zSt5j2sQrwmk8nU1DHURLfWsdiX29nedgzxPdrpx1SHvI85Nbr5PbrVjocpdF3X1Z1XsDmv14uVlRXs7OwgFovJ1WRDHo8HmqZhZ2cHmqbB7XbLixARkQ0NfHLBpML5mGQQETnLwCYXExMTTCoGDJMMIiJncERyIX5E5Iv3GlldXWVSMaBEkmG+CKsZr9cL7L2WuoPrmAaB+L1hO94fRyQXCwsLyGQyWF5elquIWrKxsYHNzU34/X65ihThOqZBcPHiRbZjBRyRXABAMBhkJkkdm5iYYGfRZVzHNAjYjtVwTHJBREREzsDkgoiIiJRickFERERKMbkgIiIipZhcEBENuGw2i1AoZDyPAwBGR0cxMzODQqFQtSyRCkwuiIgG2OLiIqanp5HL5arKy+UyLly4gKmpKSSTyao6ov1ickFENKDi8TjOnj0L7E0OFY1Gjbr5+XlgL8mYm5tDNps16oj2i8kFEdEAKhQKiMfjAACfz4ednZ2q5GJ5eRmbm5vGjJSzs7NGHdF+MbkgIhpAqVQK2BuxWF9frzsJod/vh6ZpAIBiscjRC1LGVXnz+fVDKZvNGhc4VSoVuZp6jNuD6pmamsLW1hYefPBBPProo3K1Y7zzne/E1772NXg8Hvh8PrlauXw+j3K5jEAggI2NDaDBPjYy8uZxptfrbesZTv1SKpWwtbUFsK+wJZfLNdzJRSKRwJkzZwA2UFvg9qB6jhw5glKpVPUj6US33norvvvd78rFXadpmjE6YZVchEKhmgs+nYJ9hf0MfXLx5JNP4t577wXYQG3BquOj/srn88jn8ygWi8De+ftGz18olUrI5/PA3rB7veF4oZVlB2XkQnyPXo1cwHTaQ6xXq32sUChgcXERpVLJKLOzVkcuCoUCCoWCkTi53W74/X4Eg0F5UUMrp4as2iq9yeVyAZVKRR/WyGQyOgAdQE0do/fB7WGv2Nzc1L1er7FN5PB6vfra2lrN68zbMRAI1NRbLZvJZGrqK5WKHggEdAC6pmk1dU4K8T2arZNuxqDsY82+x+7urh4Oh2varDms2pO8nFVEo1F9c3Oz5vWMiq7rus4LOomoRj6fRygUqhqtCAQCCAQCxlF3sVjE6dOnG86RkMvlkEgk5GKirgqFQrhw4QKwN1oh2m4gEDCWicfj+7pDJpVKIRQKtTTSMYyYXBBRjcXFRZTLZbjdbmQyGVy8eBEbGxvY2NjAxYsXkclkjFsYFxcX5ZdXicfjnAWSeiaZTBqnTObn57Gzs2O03Y2NDWxvbyMcDgN7CYJVcqBpGiqVSk3s7u4a17CUy2VjHhGqxuSCiGqIc9QLCwt1z08Hg0EsLy8Dex2sVQeNvfr9HCEStUO0XZ/Ph+Xl5ZprIyYmJrC6umokx+KW3VZ5PB5ommaMgogREqrG5IKIOhKJRIyhZqsLAcUskDw9Qr1i1RbNPB4PYrEYAoFATfLRKjH6gb3TiFSNyQUR1RBHZYlEAslksm6H7fF4jKHmSCQiVwN7Q8terxfg6RHqEfGjv7W1hXg8XrftYm+G0o2NDWMErl3lctn4/04TlEHG5IKIasjPnThy5AhmZmYsEw0rHo8Hq6urwN57zczMyIsQKRUMBo1THvF4HEeOHEEoFEIikVA2wlAqlYwLmd1utyMmHus1JhdEVCMSiWBpacnopLF3blkkGlNTU0gkEi0lGsFg0LgAThxNEnXLxMQENjY2jBEz7J2WO3PmDE6cOIHJyUksLi42vE4Ie3NkZLPZqkin01hcXMTk5KRxJ9XCwoL8UuL03z+dUEZ0fk71zDPPwOPx4Pjx43KVYxQKBePiqkYT41DvlEolpNNpXLhwoe6Fa263G8vLy4jFYkaZ1URNYhIpANjc3ITf769aNpPJ1L14VEybHQgE6tbbVTgcrppoTMyCKc80ms/n667bbhiUfcyqjcnS6TRyuRzS6bSRDJhFo1FjZE0QU6G3IhwOY319XS4eekM/idbS0lLNxCgMe4S8rRj9j93dXX1tbU2PRqM1k2uZJ8CymuBoc3PTKPf5fDXLWk2iNTY2VtM+nBLb29vG96g3idb29nbNa3oV8np2Uli1sUaxubmpa5pmbAcR8/PzVcvJ68kcXq9XDwQCejgctmyvjDcn0RrqkYtisYh77rkHhw4dwu233y5XO4Z5KlzzJDFO9Nxzz+HWW2/F5uamXEU2E4/HjVMc5iO4RkeV5teI2/majVyIEQ+nPFQLptsh19bWjItd641cJJNJzM3NAT3ad1udNtvuGrWxVmSzWczOzhqjGdvb20bbEiMX5meyUHuGfuRiUKKTLJ7BsAoxbbIYXWgUYlm3222UNWuPPp/PqDePHlodCTpx+m+3260D0MPhsFFWb+RCrD+v11vzHt2IZtvGKWH1PcyjY82m5l5bW6vb9kSZk9qb3YLTfxNRDXGdwNbWVtNbR8UteO3cimc+xz2oF3eK0YoLFy5YTo+eTCaNay2sbuWl9pgvMG52wSZ1F5MLIqpiHp6fmZmxvCMkn88jnU4De3eEtEo8qRPSXAGDZHl52bhbYW5uDrOzs8Z6LJVKmJmZMU6HeL1eDr8rEgwGq+ZVsbr1tFQqVU3bbfWEX+ockwsiqhIMBo0EY2trC1NTU4jH40gmk8hms0gmk1hcXMSJEyeM5CAajUrv0pimaT177Hg/eDwerK+vV00xLa512Nraqnqo1vr6elsjP9SYeVr6EydOYHZ2FolEwridNB6PY2pqyrguZn5+nuu/C5hcEFGN9fV1I8EoFouIx+OYm5vD9PQ05ubmjKM+t9uNlZWVtkYuBPkWwEHj9/uxs7NjmXhFo1Hs7OzwqFmxSCSClZUV49+pVApnzpzB9PQ0pqenEY/HjQs5w+FwxzN0UmNMLoiohpjae2VlpeoZCoLb7UY0GsXFixer5rjA3mvlx1vX4/f7sbS0ZCw7iEePYobSSqWCkydPAgBOnjyJSqWC1dXVgfzOdhCLxbC9vY1oNFo1mZYQDoextrZWd44K0R7rvY5aN9S3og6K/d6WRdSqQqHQ89tBxS2cTr81sN6tqL02KH1FJ99DXPPChK77XC4XRy6IqHW9TiyIVPF4PEwseogjFwOgkyyeSLXz58/jH/7hH5RfQ3Du3Dl8+9vfxsLCApaWluRqx+DIhTrdfHRDoVDAwYMH8dhjj8lV1CKXy8XkYhCcO3cODzzwAODwDoOc7cCBA9D17nUnXq8XOzs7crFjMLlQR9M0/Pmf/7lcrNTjjz+O++67Ty6mFvC0yIAYHx+Xi4h6rpuJBQD87M/+rFxEQ+qGG26Qi5Q7dOiQXERtYHIxAA4fPiwXEfVNJpNBpVJRFuKuk1/91V+V/xQNqRtvvNH4f7m97DcE9qv7w+SCiIiIlGJyQURERErxgs4BMCgXadldNps1pgx2Cq/XWzPJVbeIR1VbPTq9U5znQp1B6SsSiQTOnDkDdOF7dKsdW3Fiv+J2u7GwsCAXG3i3yIAYlA7D7mZmZoxnQjiF2+3G97//fbm4K7rVKTO5UGdQ+opBSi6c2K8AwPb2tuW8N7xbhKgN6+vrNRd/2T16lVgQUWec2K9UKhXLxEJgckFERERKMbkgIiIipRx9zUWpVEIymUQul6t6KE0gEEAsFqs7j7z54plWz98WCgWkUimgyWtKpZLxKGrsPXlP9VTI9QzKeVSnEm2wUCgYZcFgENFotO7Qobk9WS1TTzweB/ae2tjoXHAikUC5XAZ4Qaet8JoLdQbpmgsr6XQauVwO+XzeKAsGgw33/1b7CLNWX5NOp7G1tQW0eEEnKpWK7sSYn5/XAViG2+3WV1ZWal6naZqxjFxnFZlMpulrdnd3dZ/PZywXjUZrlulWtPL5GOpjbW1N93q9NW3PHPXagXl7ZTKZmnqrEK/RNK2mTkQ0GjWW83q9+ubmZs0y3YpOvlMrEQgEmn5vJ4T4HoFAoKauVzEofcXS0lLXvke32nGrkclkmvYr4XBY393drXmtqG9nX2nlNSsrK8Zybre7ab+i67ruyNMioVDIGCFwu92Yn583jmqi0SgAoFwuY25uDslkUnq1eqVSCaFQyMjqotEoVldX5cVogMTjcZw+fRrFYhHY2+aiDc7Pz8PtdgMAUqkUZmdnpVd3x+zsrDEi4vP5cPHixZ6MnBH12qA+8iCZTGJ6erpuv6JpGrxeLwDgwoULCIVCxoh9NyWTSczNzQF7v7cbGxut9StyxmH3MI9YRKPRutnb5uam7na7jeW2t7eNOtUjF+2MWIj3mZ+fr6nbTzT6fAz1YV7fPp+vqn2J2N3dNY5UAVSNonVj5MI8YuHz+eruF5W9z+X1enWfz1dTt9/o5Du1Et0auchkMrrb7Va+P1rFMI5crK2t6XBYn9etdix+u9bW1mrqKnu/W+JvNxodMO/r8j5hVd4oGr2m3RELEY4buSgUCsaIRSAQwOrqat3rKvx+P9bX141/m6+DUKndEQtxrYf5HBo5jxiJEFl8vWsmPB4P1tfXjREMcV6zG+QRi42Njbr7BfbaXrFYNNrsMMvlciiXy9wfu0i0M67jn64Dq33PPMLZaHRgdXXVGMHo5si8ecTC5/NhZ2fH8jPV46jkIp1OG//f7MKuYDCIcDiMcDgMn88nV+9bu4kFDQbx4wwACwsLlj/i2EswFhYWjAuMuzGE2U5iQUT2VCgUqn5Lmv2Ia5rW1X5FTiw66VcclVyYZzFrdFWrsL6+jvX1deVXyzOxGF7mNiie1tmIpmnY2NiApmlt75zNMLEgGgzmA+dwOFxVV08sFutav6IisYDTkgtxq18rnXq3yImFz+djYjFEzEcJzY4uusmcWGAvke6kAyCi/hO3jgOoe5q1V8yJBfbZrzhqngtx//H8/DyWl5fl6pbE43Hj/Her90eb7w33+Xw158zW1tYQiUSqyuoRf1u+z32/D64xz5vQ6neizoi5CvbzzA5ze2rnXnrR/t1ud1VnhDZGz6zmOTC3oU6J/aqd79SKe+65B//xH//R9D78ZuQ5P6z2x24ZxnkurNaxnfs8sZ+1MwdNPXJ7bTRfi/lgYT/fR3z2en/DinhNvd+2cDhcdf1iqxw3z4W4arXRHRnNYr93i5ivrBV3pLjd7rp3DMgh/rZ8tbj5zpb9hvw3GWrDfAeIXNdq7PduERHRaLTq81hdhW4Oq6vszVeg7zeWlpZq/u5+YmxsrOZvdBrmq92t9sduxTDeLWK1ju3c58nv32m43e6q921015P5Lki5rp0Q71Hvb1iF/Ll9Pp8eDoeNf3eyP+u6rjtq5GJychLFYrEmC27HfkcuAGBlZQWxWAzpdBqnT58GTPMKNGKVxYvM0ev1dpQpX7t2Dc8//zzcbjdeeOEFuZoUWlxcNO4+avRUwEb2O3IB00hFoVDA1NQUyuUy3G43Ll682PAzWR25mkdkOj3dUygUUC6X8U//9E9497vfLVd37BOf+AS+9KUv4bbbbsPY2Jhc3RJxlGxe31b7Y7dw5KK2z/P5fB0Nu4s+7/bbb8fm5qZcvS8nTpzASy+9hDvvvBMHDx6Uq5sqlUrGCEC9fazeqIL5d6mdPkG2n5ELmK6xwN7vrRgh3dzcbKtfcNzIRbtHjZlMRl9aWqp7tNLqe4j3Ea+RZ/00Z3jNskWrLL7V13cagUDAiFb+hpijQYR5/a2srBjlzY6UNzc3676Hk8M8M2Arow7b29u6pmlVy+535CIcDleVm+9FbzZ/hdWRqx2OqrsZ9da31f7YrbDDOrba/t0Kq3Vcb3sMSlitY7H96/XB5n1Y/o2pF7u7uzX9SqXD3xLxGnl+HDFHSb26ZuG4eS7MV9Gan+NgJR6P48yZMzhx4oSy23XkO0/M9xzH43Fks9mqejvI5XJGJBIJubqGmNNehHndFYtFo3x2drbhei2VSnXfw8nM19aY7xyxkk6nEY/HMT09XXVF+H7IRxCxWMzYN7a2trC4uFhVT0T2Zu5X5Ose6jH3K6rmuohEIlWjSJFIBPPz80CH/YqjkgvzBmg2pXI+nzeGQqPRaEdDb63weDxVF9LNzMzY+oe0XC43/ZFr5UcTe+/VbDsMmomJiaoJbBpt65LpQXZer7eli347ZU5yz54923QbE5F9ePYeuIm9/bfRwbO5X3G73V3tV8xTjqdSqbYSGUclFxMTE0YmJY6c6ykUCgiFQsa/xfNGuiUYDBqfq1wuY2ZmRl7EVholD6VSqWG97MKFC0P3QyaSyXK5bDm/f6lUwszMjDHhljzipZqc5DYbVSIiezHfATkzM1N3VtNSqYTFxUVjdMPq6d+qePZmGhYWFxfrfq56HJVcYC+TEjNuplIpTE5OYnFxEel0GolEArOzszh69KhxIcrKyorlxTGhUKhhtLoSsdcwxOdq9fRDr4kMtFEyIOpamchFTG09bD9kwb3HqWNvuHBychKzs7NIJpNIJpNYXFzE5OSkMXIWDoctL65aXFysaXfmaOdIwWlJLhH9lN/vrzoNceLECczOziKRSCCZTCIej2NycrJq4jyrKRmSyWRNX2KOdk5x+P1+o/9qa7RavhDDCSE/FKpeuN3uuhe1mC/obBbiYhmrC3TkMD94BtJtb+a/bXVxU73PqyLE+5tvd7K6GFOsV/MFRvUughPvIf5fvsiwso8LF50SrbSleg/XM6+XZmFuE/XK6oX5QXryslZt2Q4XG3YzxHeu15Z79Z3tsI6ttn+3wmod19segxJW67jRBZ3mWFlZaXqrbrNHrjcL8/YQZc0+l7lfafYgOsfdiirL5/NIpVJVIwzi3JXVcFE7k7eISVTME7ZYHYEK6XTaGLJqddKeTm4faof5/fP5PC5cuFB30qVCoYCjR48CAHZ3d3HkyBHA4vY97N1mNTMzY5xGkScT6/SWSycplUpIJpM1F62K0Y16t4W2M2GVeSIesd7lyXlkYhsL5jZldStiyAa3SXaT2AfqteVefWc7rGOr7d8tVuu43vYYFFbrWGz/Vvr5Rv1Ko/1f9BHNmH+bWu1X5H5rfn6+7m8snHgrqtOjWRbfLHPsNMzvL0Yk5AleKqbbLMUohHhdvaM97GXlu7u7VZOJmbPpQR+5cGI0O6qS2+agRL12aLU/divssI6ttn+3wmod19segxJW67jVkYtBCMfdikr7J0YW6t01IrLSVq63EMwXErZ1Po6IiAYWk4sh4/F4jOTBPHQuHvnrdrvbvrMhEolUvaectBAR0XBhcjGExJ0O6XTaOJ8nEoJO75leXV0d2rtHiIioGpOLIRSJRIwna4qkopNTImY8PUJERMJQJxeFQgGjo6MYGRnpSYirci9duiR/lJ4TIxS5XK7qlEinIxeoc3qkncm4htnU1FRNW+lWmB/AN+zELIi5XK5mPXUjxF1qly9flj5J75j/tvz5uhF26vP6TayDeDxes566FaOjow1n++ymoU4uSqWSMdlWL73++utyUc+JJCCdTu/7lIiZ+fSImKKWGuvXzj/s+nXqbsT0FMpec7lcclFP2KHP67d+rINyudy3/sXR81yokM/ne9bJpFIppFIpnDp1Ck899ZRRLjqbVu5/7oTV+4+OjlYlV/I8FeJ19eYGQIP75NOmR9ELg3g/uyqFQqFnHUA+n8eZM2cAi3vw5fkIBkWjttxopkPV8vk8FhYW5OKeOn/+PHRdx/j4uFylXLM+bxD7Bat5Lt7znvfgK1/5CqLRaNcfSSF4PJ6aBx32Aue56HE0u+e7W/c/W71/NBo16rxer+Xr6s0NIN/DLYf5UfTyezD6F83uwZfb5qBEvXZotT8y1IXVOq63PQYlmu1jcj88iMF5Loac+eJNFadEzMynR4iIaLgwuRgC4nSIeKSvEIlEjDrxwBwzUWeewjoQCNScXqlHPE1P0zT86Z/+adV76LpetWw9//7v/44jR47g05/+NADg7rvv7uu5aiIiah176yEgkoF65zbrJRCN6oLBYEvJBUzL/tmf/RnK5TKeeOIJvPzyyy1dVPbGG2+gVCrhtddek6uIiMjmmFxQT5w/fx4f//jHjVvhmo1e3HHHHfjMZz6DX//1X5eriIjI5phcUNd985vfxDe+8Q2Uy2Xs7Ozg2rVrxujF//zP/yCbzeLpp59GsVg0XnPLLbdgbm4OU1NTpnciIiInYHJBXfelL30J29vb+OEPf4hnnnkGr732Gra3t/HAAw/gT/7kT5BOp/G5z30Ov/d7v4d//Md/BAA8//zz+K3f+i2cP39efjsiIrI5Jhc2l06nkc1m5WJHmZubw9vf/nZ4PB68853vxM/8zM/gU5/6FM6dO4dgMIgPfehD+PjHP45XXnkFn/vc5/CDH/wAV69exdNPP43//d//ld+OeiyfzyOZTMrFtlMoFDjt/ABwSp+XzWaNOX+oFpMLm9va2sL09DRCoZAjdrh67rrrLni9Xrz1rW/FL/7iLwIA3ve+9yGXy+FjH/sYTpw4gV/+5V/GHXfcgVKphP/7v//Dddddh8OHD+Mtb3mL/HbUY6VSCXNzc5icnLRlkiGSiqNHjxrPyCHnsnufl81mEQqFMD09bcvPZxdMLhwil8vZeodr5o033kClUsHVq1cBAL/zO7+D119/HR/+8Ifxh3/4h/jgBz+IbDaL0dFRHDhwQH452UCxWLRVksGkYrDZrc8zJxXiOTFkjcmFw9hth2uXSBzOnTuHBx98ENvb2/jJT36CQCCAEydOGMkH2Ve/kwwmFcOl330ek4rOMLmwEXEOzxxWO5O8wyUSCeMBZHak6zquv/563HrrrfjOd76DM2fOIBgMIpPJ4Itf/CIefPBBHDt2DD/+8Y/ll1IPiKSuUCjUtEGrH3A5yRDtUDXxmb7+9a+3lFTIn5/nxe0rlUrVbKt+93npdBqJRKKlpKKd/WXoyHOCM7oXzebZVxHy37RL3H///Tr25tXf2dnRT548qb/73e/W//Vf/1V/9tln9U984hM6AP3OO+/Ud3Z29P/8z//UDxw4YMzD//a3v93W388pYfXcg7GxsZq21G6MjIzo6MLzIuTn1OwnlpaWjPe12h8Z6sJqHcvbZT8h/839hvz++wnz+/LZItRzkUgEY2Nj+KVf+iUEAoGq8Hq98uJV3G53z56wtx/vf//7cffdd+PLX/4yXnvtNXz605+Gy+XCF7/4Rfzt3/6tcf3Fvffei4MHD+Ktb30rQqGQMTvoPffcg/e85z3y25IijzzyCDweD3w+X00b9Pl88uI1otGo5VNy90s8tTgcDjfdH7A3Rb0ct912G8bHxzEzMyMvTn0g+rxTp07VbKtm27hXfV40Gm36fCSPx1Pz+U+dOoWxsTEEpMctDB0542B0L6yy+EZhfgqpOdxut65pmr67u2t5NGqnuHbtml4oFPSNjQ39W9/6ll6pVPQXXnhB/7d/+zf9n//5n/XXXntNr1Qq+ne+8x39Rz/6kf6jH/1I//rXv65fvnxZr1Qq+je+8Q392WefrXlfRnvRSVsxv0aOaDSqb29v65UuPulSPuJbWVnRvV5vzWdp93t1sj8y2otO1nG/+zzxvplMRt/d3dU1TdPdbnfN52n3e8nteJCDIxcO5Ha7oWkadnZ2oGkaPB6PvIjt6LqOkZER/NzP/ZxxFIm9Kb7f/e53433vex9uuOEGAMD4+DhuvPFG3HjjjXjHO96Bt73tbdB1Hb/wC7+AkydPSu9M/RKNRrG9vY3V1dW6z6Xpplgshp2dHaysrDQ9yiXn62ef5/F4qv52s5EM+ikmFw7Rzx1sv1p5UFkj+309qdPPpELGJGOw2anPY5LRPiYXNmenHYyGl52SChmTjMFi5z5PTjLs9NnshslFD4lst50GubCwwEZMynTSjoLBoC2TCplIMlrFRKT7BrXPE0nG+vq6XGVJfJ9hGfVgctFDCwsLWFtbw/LyslxF1BN+vx+ZTAabm5ty1dCJxWJYW1vD6uqqXEWKiD6P6xhYXV3F2toaFhYW5KqBxOSixyKRiO2PAGmwBYNB+P1+uXgocX/svkgkYutRiF7xeDyIRCJy8cBickFERERKMbkgIiIipZhcEBERkVJMLoiIiEgpJhdERESkFJMLIiIiUorJBRERESnF5IKIiIiUYnJBRERESjG5ICKlrly5Ihfti3i/y5cvy1VEZFNMLgZAPp+Xi4j65tKlS3LRvrz44osAgOeee06uoiHViz6vF39jkDG5GAB8TgTZybFjx+SifRFPLz1+/LhcRUOqF31eL/7GIGNyQURKHT58WC7aF/HQq/HxcbmKiGyKyQUREREpxeSCiIiIlGJyQUREREoxuSAiIiKlmFwQERGRUkwuiIiISCkmF0RERKSUq1Kp6HIhOUs2m8X09DQAoFKpyNVEPTEy8uaxSjQaxcTEhFzdsWQyiWKxiFOnTuG9732vXD1UCoUCLl++jHe9611y1VApFApIpVIAAE3T5Op9icfjAIBMJoNgMChXUwtcLheTi0Fw7tw5PPDAAwCTC+ojkVwQDQImF51jcjEgnnzySdx7770Akwvqo3g8jmw2Kxfv26uvvopvf/vbuOOOO5TP/uk0uVwOAODz+YyZS4fRtWvX8Pzzz+P6669XPt089maFXV1dHep1vB9MLgYET4sQDQcxOsSjarIzl8vFCzqJiIhILSYXREREpBSTCyIiIlKKyQUREREpxeSCiIiIlGJyQUREREoxuSAiIiKlmFwQERGRUkwuiIiISCkmF0RERKQUkwsiIiJSiskFERERKcXkgoiIiJRickFERERKMbkgIiIipZhcEBERkVJMLoiIiEgpV6VS0eVCsodEIoFyuSwX1ygUCkilUgAATdPk6rq8Xi9isZhcTEQ9lk6nsbW1JRfXFY/HAQDRaBQTExNydQ23241YLAaPxyNXEXWNy+VicmFX6XQap0+flouV2t7ebqmDIqLuGRnp7gDy0tISFhYW5GKirmFyYWOFQgGzs7NycV3Xrl3D888/j+uvvx7Hjh2Tq+vyeDxYX1+Xi4mox2ZnZ1EoFOTiugqFAn70ox/hzjvvxMGDB+XqulZXV3kQQT3F5IKIiIiUcrlcvKDTKbLZLEZHRzEyMtJRTE5OolQqyW9LRDZSKpUwOTlZs/+2E+l0Wn5bop5jcuEQhUKhpYs7rRSLxZaHXomoP0qlEorFolzcFu7nZAc8LeIg2WxWLmqZx+OB3++Xi4nIZvL5/L5GGYPBoFxE1FO85sLB0uk0zp49KxcbPB4PNE1jQkHkYPl8HvF4vGGyMT8/j0gkIhcT9Q2TCwebnJxsOnwajUaxuroqFxORQ8TjcWNuCyterxc7OztyMVHfMLlwMI5cEA0+jlyQEzG5ICIiIqV4KyoREREp59J1nSMXREREpAxHLoiIiEgpJhdERESkFJMLIiIiUorJBRERESnF5IKIiIiUYnJBRERESjG5ICIiIqWYXBAREZFS/w+0iVVUDspLPgAAAABJRU5ErkJggg==;" vertex="1" parent="1">
          <mxGeometry x="270" y="120" width="535" height="387" as="geometry" />
        </mxCell>
        <mxCell id="lSAonV-mom5EgJ4q0kRa-2" value="" style="rounded=1;whiteSpace=wrap;html=1;fillColor=none;dashed=1;dashPattern=12 12;strokeWidth=4;strokeColor=#FF0000;" vertex="1" parent="1">
          <mxGeometry x="260" y="120" width="220" height="410" as="geometry" />
        </mxCell>
        <mxCell id="lSAonV-mom5EgJ4q0kRa-3" value="" style="rounded=1;whiteSpace=wrap;html=1;fillColor=none;dashed=1;dashPattern=12 12;strokeWidth=4;strokeColor=#00CC00;" vertex="1" parent="1">
          <mxGeometry x="490" y="130" width="310" height="400" as="geometry" />
        </mxCell>
      </root>
    </mxGraphModel>
  </diagram>
</mxfile>
